<?xml version="1.0" standalone="no"?>
<!DOCTYPE svg PUBLIC "-//W3C//DTD SVG 20010904//EN"
 "http://www.w3.org/TR/2001/REC-SVG-20010904/DTD/svg10.dtd">
<svg version="1.0" xmlns="http://www.w3.org/2000/svg"
 width="570.000000pt" height="538.000000pt" viewBox="0 0 570.000000 538.000000"
 preserveAspectRatio="xMidYMid meet">

<g transform="translate(0.000000,538.000000) scale(0.100000,-0.100000)"
fill="#000000" stroke="none">
<path d="M1625 5364 c-161 -20 -213 -28 -295 -46 -52 -11 -106 -26 -120 -33
-41 -21 -160 -152 -238 -262 -101 -141 -171 -260 -277 -473 -115 -229 -184
-333 -321 -480 -207 -222 -287 -353 -340 -560 -25 -97 -29 -263 -9 -365 41
-206 110 -340 288 -563 65 -81 143 -183 172 -227 53 -80 126 -217 140 -265 15
-51 98 -208 153 -290 33 -48 122 -152 207 -240 160 -166 279 -314 427 -528
360 -524 842 -844 1458 -968 227 -45 403 -57 875 -56 671 1 927 24 1164 107
260 91 363 201 501 531 83 200 92 273 64 534 -18 174 -37 1315 -24 1425 11 88
32 146 112 315 122 257 132 297 132 510 -1 179 -24 313 -76 439 -28 66 -46 91
-139 186 -151 156 -166 184 -194 353 -40 242 -127 370 -367 538 -207 145 -316
196 -525 243 -51 12 -132 30 -180 41 -219 49 -429 74 -1003 121 -134 11 -1510
22 -1585 13z m1390 -124 c492 -29 994 -72 1053 -91 17 -6 32 -14 32 -19 0 -37
-336 -54 -512 -25 -468 75 -702 98 -1023 99 -282 1 -297 -1 -511 -70 -139 -45
-342 -155 -448 -244 -239 -200 -356 -303 -356 -313 0 -7 -3 -22 -6 -34 -4 -15
0 -24 14 -32 22 -12 5 -22 274 181 235 177 453 304 614 357 256 85 415 91 959
36 88 -9 223 -25 300 -35 77 -11 250 -24 385 -30 272 -11 332 -5 428 44 85 43
184 28 325 -47 183 -97 390 -223 441 -269 102 -91 164 -218 186 -381 13 -98
36 -190 57 -232 8 -16 52 -68 97 -115 46 -47 101 -110 124 -141 147 -196 174
-466 75 -743 -14 -39 -63 -154 -108 -256 -46 -102 -87 -201 -92 -220 -6 -22
-7 -160 -2 -370 4 -184 10 -465 13 -625 4 -159 9 -378 12 -485 10 -345 -31
-529 -166 -739 -110 -171 -154 -191 -515 -235 -575 -69 -1222 -85 -1525 -37
-339 54 -732 171 -929 277 -230 124 -442 330 -682 664 -135 188 -333 431 -486
598 -161 175 -243 300 -344 527 -83 188 -154 297 -285 435 -129 137 -182 246
-249 511 -42 166 -32 246 55 426 53 111 90 170 158 251 54 65 91 86 126 72 27
-10 36 -30 13 -30 -7 0 -49 -37 -94 -82 -57 -58 -90 -101 -109 -142 l-27 -60
6 -323 c6 -252 10 -332 22 -359 45 -108 294 -260 350 -214 24 20 18 27 -28 38
-50 13 -149 75 -194 123 -61 64 -70 103 -84 338 -16 284 -10 371 28 453 57
120 176 205 347 248 76 19 110 22 218 18 127 -4 128 -4 128 19 0 18 -9 25 -42
34 -56 15 -358 6 -411 -12 -80 -27 -76 -15 113 357 207 409 265 510 357 624
118 147 240 227 383 254 43 8 215 19 405 26 182 6 348 13 370 15 67 5 579 -5
760 -15z"/>
<path d="M2460 5005 c-410 -63 -544 -109 -730 -249 -133 -100 -350 -337 -350
-382 0 -49 110 19 267 163 241 223 327 271 592 334 239 57 389 63 606 24 238
-43 409 -55 768 -55 316 0 608 17 712 40 75 18 139 12 179 -15 46 -31 66 -32
66 -2 0 36 -38 87 -78 104 -34 14 -52 14 -212 -1 -509 -48 -602 -48 -1120 -5
-121 10 -238 25 -426 55 -109 17 -93 17 -274 -11z"/>
<path d="M2295 4785 c-131 -21 -204 -43 -310 -95 -189 -94 -328 -236 -465
-476 -87 -154 -111 -179 -182 -190 -68 -12 -75 -48 -16 -84 43 -26 58 -25 58
4 0 14 5 28 10 31 19 12 38 -16 60 -86 23 -73 44 -104 125 -182 281 -272 705
-354 1185 -231 324 84 536 309 518 551 -11 139 -80 264 -192 348 -55 42 -81
73 -156 188 -83 125 -93 137 -120 137 -17 0 -30 -4 -30 -8 0 -4 18 -25 39 -46
39 -38 79 -111 68 -122 -3 -3 -56 6 -117 21 -383 91 -507 89 -826 -15 -99 -32
-124 -36 -124 -20 0 6 4 10 8 10 5 0 34 20 66 45 32 24 87 58 123 75 134 64
441 114 668 109 171 -4 217 -1 213 14 -11 33 -435 49 -603 22z m269 -260 c91
-16 218 -56 243 -77 36 -30 -14 -136 -78 -164 -48 -22 -50 -34 -6 -34 23 0 41
-8 57 -25 13 -14 32 -25 42 -25 22 0 23 13 3 30 -8 7 -15 21 -15 31 0 25 67
159 80 159 32 0 220 -178 220 -209 0 -5 -15 -11 -32 -15 -23 -4 -51 -27 -95
-73 l-61 -67 -42 13 c-53 16 -63 6 -27 -24 30 -27 33 -41 12 -69 -20 -27 -19
-35 5 -29 12 3 55 45 96 94 93 110 103 116 152 92 l37 -18 3 -105 c2 -86 0
-107 -13 -116 -10 -8 -51 -10 -125 -6 -113 5 -186 -9 -235 -45 -19 -14 -16
-15 33 -10 52 4 54 4 49 -20 -7 -38 10 -37 48 4 32 35 39 38 85 36 51 -1 110
-19 110 -33 0 -35 -152 -173 -205 -186 -15 -4 -51 5 -92 21 -60 24 -74 26
-128 19 -33 -5 -96 -8 -140 -9 -44 0 -91 -4 -104 -9 -24 -8 -24 -9 -6 -22 26
-20 187 -18 244 2 42 14 46 14 89 -8 53 -27 62 -43 30 -51 -13 -3 -48 -13 -78
-21 -135 -40 -346 -56 -479 -36 -78 11 -87 19 -69 57 17 37 50 41 105 13 47
-24 76 -21 71 7 -4 21 -101 73 -136 73 -23 0 -62 -34 -119 -103 l-22 -27 -83
32 c-46 17 -110 40 -143 51 -33 11 -62 22 -64 24 -3 2 11 17 31 33 20 17 42
46 48 65 6 19 14 35 16 35 3 0 25 -12 49 -26 25 -14 54 -24 66 -22 l22 3 -25
30 c-32 37 -91 70 -112 62 -8 -3 -30 -31 -47 -62 -40 -72 -67 -86 -116 -60
-48 26 -111 99 -141 165 -22 46 -26 70 -26 145 -1 84 2 95 34 159 19 38 40 69
45 70 20 2 56 -87 55 -134 -3 -88 -1 -97 21 -103 20 -5 21 -3 16 39 -5 46 8
64 47 64 11 0 71 -24 119 -48 4 -2 7 6 7 17 0 26 -31 46 -95 62 -61 14 -108
48 -125 88 -21 51 -7 73 82 134 46 32 87 57 91 57 5 0 38 -27 74 -60 72 -65
106 -80 76 -32 -10 15 -33 49 -52 75 -19 27 -30 52 -25 56 16 15 218 62 290
68 68 5 71 5 92 -22 13 -17 22 -42 22 -63 0 -47 32 -82 76 -82 31 0 60 20 47
33 -3 4 -19 7 -34 7 -38 0 -59 33 -59 92 l0 48 64 0 c35 0 103 -7 150 -15z"/>
<path d="M2237 4230 c-114 -36 -187 -121 -187 -218 0 -67 17 -96 82 -145 92
-68 242 -96 337 -62 61 21 128 71 158 117 68 103 1 258 -134 308 -69 26 -177
26 -256 0z"/>
<path d="M3915 4724 c-11 -3 -58 -12 -105 -21 -138 -25 -196 -67 -134 -95 22
-10 31 -9 58 6 33 20 277 54 390 55 160 2 380 -100 432 -200 8 -16 14 -30 14
-32 0 -2 -62 -7 -137 -11 -318 -16 -523 -80 -616 -192 -16 -19 -33 -34 -38
-34 -14 0 -39 69 -39 110 0 27 10 53 36 90 64 93 53 168 -13 86 -74 -94 -86
-150 -57 -266 l17 -65 -51 -101 c-27 -55 -56 -105 -64 -111 -7 -6 -41 -13 -76
-15 -66 -5 -83 -16 -75 -49 6 -21 58 -69 124 -115 67 -46 79 -79 79 -223 0
-70 5 -131 12 -146 6 -14 36 -44 67 -67 141 -106 174 -156 148 -220 -16 -38
-119 -177 -169 -227 l-33 -33 -85 4 c-96 6 -130 -2 -130 -31 0 -26 44 -78 83
-98 18 -9 54 -16 82 -16 134 -2 254 90 309 235 10 25 32 61 50 79 31 32 31 32
34 8 5 -34 21 -49 51 -49 37 0 51 17 51 62 0 21 5 38 11 38 6 0 77 -35 158
-79 130 -70 211 -103 211 -87 0 26 -204 150 -292 177 -64 20 -98 43 -98 65 0
23 -54 77 -196 195 -140 116 -182 167 -168 203 8 22 22 17 164 -55 186 -93
236 -104 480 -103 228 1 283 8 440 61 107 36 210 46 286 29 65 -15 88 58 34
109 -32 31 -37 59 -16 88 17 22 68 22 94 0 21 -19 82 -206 82 -252 0 -70 -72
-240 -109 -261 -25 -13 -51 -39 -51 -51 0 -17 57 -9 91 14 48 32 106 120 118
178 32 147 -8 304 -110 433 -22 27 -39 59 -39 72 0 21 3 24 28 18 74 -18 143
-87 200 -203 33 -66 37 -86 40 -162 3 -75 -1 -104 -29 -204 -18 -65 -45 -136
-59 -159 -28 -43 -94 -93 -210 -156 -119 -65 -73 -100 50 -38 85 42 198 154
233 230 34 71 54 158 62 269 14 171 -18 239 -213 458 -50 55 -110 138 -140
191 -98 173 -227 274 -425 335 -49 15 -66 27 -105 74 -133 158 -210 210 -362
242 -79 17 -315 25 -375 13z m559 -390 c3 -9 6 -28 6 -43 0 -47 21 -91 51
-106 47 -25 51 -17 13 31 -28 37 -34 54 -32 83 l3 36 58 3 c98 5 324 -65 347
-108 11 -21 -6 -40 -37 -40 -26 0 -63 -32 -63 -54 0 -23 20 -69 27 -63 3 4 6
25 7 48 l1 41 60 19 c33 10 66 19 73 19 22 0 106 -92 129 -140 24 -51 38 -148
25 -168 -5 -7 -35 -20 -68 -28 -78 -21 -94 -30 -94 -57 0 -12 -4 -28 -9 -36
-7 -11 -12 -10 -22 8 -19 29 -31 27 -27 -5 4 -34 31 -53 55 -38 19 12 29 27
43 67 9 25 14 27 65 27 67 0 68 -6 17 -86 -71 -109 -228 -232 -319 -250 -26
-5 -34 -1 -67 38 -32 37 -37 48 -33 80 l5 37 -22 -26 c-17 -20 -35 -27 -81
-32 -62 -7 -57 -13 20 -26 22 -4 48 -11 57 -16 23 -12 52 -69 41 -79 -8 -8
-241 -30 -316 -30 -44 0 -44 -4 -8 89 l20 54 -28 -27 -29 -28 -77 41 c-43 23
-79 40 -82 37 -3 -2 27 -26 66 -52 60 -40 71 -51 71 -75 0 -27 -2 -29 -42 -29
-56 0 -153 24 -237 56 -97 39 -100 43 -44 86 27 20 65 44 86 54 20 10 37 24
37 31 0 7 -2 13 -5 13 -2 0 -42 -22 -89 -50 -47 -27 -95 -50 -108 -50 -46 0
-110 59 -152 140 -54 104 -72 306 -30 337 24 18 48 2 132 -88 41 -44 80 -79
88 -79 19 0 18 16 -2 32 -30 23 -98 94 -139 143 l-39 48 42 37 c60 51 142 99
215 125 116 42 107 44 157 -45 25 -44 49 -80 54 -80 4 0 6 6 3 13 -31 80 -39
116 -34 139 7 25 12 27 65 31 150 9 190 7 196 -9z"/>
<path d="M4420 4091 c-35 -8 -101 -39 -131 -63 -74 -59 -78 -179 -7 -245 34
-32 129 -73 186 -80 62 -7 177 25 222 63 106 90 66 252 -76 307 -50 19 -147
28 -194 18z"/>
<path d="M1040 3855 c-8 -2 -55 -9 -105 -15 -134 -18 -181 -40 -254 -113 -140
-142 -195 -274 -195 -472 0 -169 29 -271 97 -342 75 -79 94 -7 52 194 -21 97
-19 224 4 305 50 176 206 310 361 311 83 1 124 -13 237 -80 88 -52 228 -113
259 -113 38 0 43 100 6 133 -9 9 -57 34 -105 56 -49 23 -115 59 -148 82 -68
48 -142 67 -209 54z"/>
<path d="M1033 3578 c-16 -21 -21 -42 -33 -130 -6 -46 -18 -93 -26 -106 -8
-13 -63 -45 -127 -75 -121 -58 -140 -73 -135 -109 2 -17 14 -26 47 -37 39 -12
53 -12 110 2 81 19 85 17 118 -85 23 -70 65 -260 77 -343 83 -616 124 -792
235 -1013 154 -307 528 -704 880 -936 281 -186 516 -284 806 -337 278 -51
1095 -26 1559 47 248 39 308 64 410 175 101 109 157 241 175 414 24 223 33
572 22 789 -27 508 -44 685 -98 1011 -35 217 -40 234 -97 329 -13 21 -27 61
-30 89 -10 69 -30 114 -56 122 -44 14 -69 -45 -70 -162 0 -122 -80 -281 -186
-368 -211 -175 -469 -247 -884 -247 -385 0 -648 45 -1050 177 -107 35 -229 74
-270 86 -382 111 -709 258 -1085 487 -169 103 -190 122 -204 177 -8 31 -17 44
-33 49 -34 9 -44 7 -55 -6z m161 -322 c169 -91 362 -211 394 -243 24 -26 32
-44 32 -71 0 -20 9 -80 19 -132 28 -142 15 -154 -97 -93 -246 134 -408 265
-452 366 -28 64 -36 161 -16 192 9 14 22 25 28 25 6 0 48 -20 92 -44z m632
-330 c465 -164 616 -221 641 -244 27 -25 27 -42 -4 -175 -17 -77 -32 -97 -72
-97 -71 0 -388 139 -493 216 -82 61 -134 142 -158 248 -8 36 -8 52 1 62 14 17
3 18 85 -10z m3014 -228 c47 -198 48 -221 17 -252 -33 -33 -91 -36 -107 -5
-14 26 -70 253 -70 284 0 17 15 34 58 63 31 22 60 40 64 41 3 1 20 -59 38
-131z m-237 -55 c22 -59 43 -219 33 -256 -11 -46 -116 -97 -170 -83 -31 8 -38
22 -64 143 -15 72 -17 96 -8 115 9 18 165 125 186 127 3 1 14 -20 23 -46z
m-1743 -49 c161 -29 305 -67 322 -83 14 -13 17 -38 19 -144 1 -87 -2 -132 -10
-140 -18 -18 -115 -13 -276 17 -214 38 -321 65 -347 86 -22 17 -22 19 -9 101
17 104 36 169 53 181 16 11 137 3 248 -18z m1440 -96 c6 -18 14 -72 17 -119 6
-85 5 -87 -21 -104 -31 -21 -229 -62 -336 -71 -72 -6 -76 -5 -100 20 -21 23
-25 39 -28 102 -7 124 19 153 138 154 53 1 184 24 220 38 14 6 41 11 62 11 32
1 37 -3 48 -31z m-640 -27 c52 -6 56 -8 75 -46 27 -56 28 -174 1 -204 -18 -20
-29 -21 -191 -21 l-172 0 -27 26 c-25 26 -26 31 -26 140 0 80 4 114 13 117 14
6 246 -2 327 -12z m-2157 -711 c108 -62 222 -163 253 -222 34 -64 17 -185 -28
-209 -17 -9 -26 -4 -60 33 -103 111 -280 401 -262 429 9 16 28 10 97 -31z
m554 -325 c94 -46 201 -94 239 -105 182 -56 212 -109 164 -295 -23 -89 -98
-238 -122 -243 -37 -7 -320 200 -425 311 -82 87 -93 112 -69 165 13 31 36 175
36 235 0 9 1 17 3 17 2 0 80 -38 174 -85z m750 -296 c87 -34 185 -72 218 -84
162 -61 165 -65 164 -217 -1 -154 -12 -257 -29 -269 -23 -15 -202 -4 -305 20
-200 45 -365 123 -365 172 0 19 96 352 119 412 6 15 17 27 25 27 8 0 86 -28
173 -61z m2213 -107 c0 -89 -68 -252 -105 -252 -35 0 -27 118 14 199 22 42 65
91 81 91 5 0 10 -17 10 -38z m-1594 -67 c64 -20 217 -45 272 -45 24 0 53 -5
64 -11 19 -10 20 -17 14 -73 -11 -105 -60 -303 -80 -325 -17 -19 -31 -21 -120
-21 -123 0 -217 14 -232 35 -7 10 -15 93 -19 214 -9 255 -7 259 101 226z
m1385 -100 c3 -55 11 -113 18 -128 6 -16 11 -30 11 -32 0 -3 -114 -39 -192
-60 -55 -15 -55 -15 -32 64 65 226 89 263 169 257 18 -1 21 -10 26 -101z
m-271 23 c-1 -43 -60 -253 -78 -278 -35 -46 -170 -65 -185 -25 -6 15 54 219
79 266 7 15 21 30 31 34 15 6 85 18 141 24 6 0 12 -9 12 -21z m-334 -13 c3 -8
-1 -71 -10 -140 -9 -68 -16 -140 -16 -158 0 -63 -58 -87 -206 -87 -130 0 -133
8 -94 195 10 49 22 110 25 135 4 25 12 51 17 58 8 8 49 12 145 12 109 0 135
-3 139 -15z"/>
<path d="M2755 3337 c-64 -17 -72 -21 -91 -60 -16 -31 -31 -47 -46 -47 -16 0
-38 34 -38 60 0 44 -17 45 -37 3 -10 -21 -28 -43 -41 -49 -13 -6 -96 -15 -185
-18 -192 -8 -213 -12 -220 -35 -4 -17 8 -18 182 -19 172 -1 191 0 254 23 l68
23 9 -23 c5 -12 16 -76 25 -141 22 -164 22 -162 58 -184 40 -25 79 -25 100 -2
24 27 21 63 -9 103 -107 140 -76 249 70 249 85 0 139 37 117 79 -21 38 -135
58 -216 38z"/>
<path d="M2957 3110 c-16 -5 -35 -17 -43 -27 -19 -26 -17 -111 5 -152 l18 -35
44 57 c65 85 102 88 184 15 36 -32 56 -42 82 -42 80 0 83 105 6 159 -41 29
-230 45 -296 25z"/>
</g>
</svg>
